<svg xmlns="http://www.w3.org/2000/svg" width="54" height="48" viewBox="0 0 54 48"><path d="M51.74 9.78C49.28 4.28 44.06.72 38.44.72 32.77.72 29.12 3.25 27 5.95 24.87 3.25 21.2.72 15.52.72 9.91.72 4.7 4.28 2.24 9.78-.3 15.46.82 21.79 5.24 26.7a289.49 289.49 0 0 0 20.22 20.43 2.3 2.3 0 0 0 3.05 0c.1-.09 9.54-8.53 20.23-20.43 4.42-4.92 5.53-11.25 3-16.93zm-6.42 13.86c-8 8.9-15.27 15.83-18.33 18.67A296.53 296.53 0 0 1 8.65 23.64c-3.21-3.58-4.02-7.95-2.22-12 1.7-3.78 5.35-6.32 9.1-6.32 7.4 0 9.06 5.5 9.22 6.1a2.3 2.3 0 0 0 4.47 0c.06-.24 1.58-6.1 9.23-6.1 3.74 0 7.4 2.54 9.09 6.33 1.8 4.04 1 8.4-2.22 11.99zm-6.9-15.82a2.3 2.3 0 1 0-.62 4.55c.12.02 2.95.45 3.22 4.49a2.3 2.3 0 0 0 4.59-.3c-.41-6.2-4.88-8.43-7.19-8.74zM40.53 20a2.3 2.3 0 0 0-1.63 3.92c.44.42 1.03.67 1.63.67.6 0 1.2-.25 1.63-.67A2.31 2.31 0 0 0 40.53 20z"/></svg>