<svg xmlns="http://www.w3.org/2000/svg" width="73" height="73" viewBox="0 0 73 73"><defs><clipPath id="a"><path fill="#fff" d="M230 2336v-73h73v73zm3.35-36.4a33.12 33.12 0 1 0 66.25 0 33.12 33.12 0 0 0-66.25 0z"/></clipPath></defs><path fill="#fff" d="M36.47 3.48a33.12 33.12 0 1 1 0 66.25 33.12 33.12 0 0 1 0-66.25z"/><path fill="none" stroke="#000" stroke-linecap="round" stroke-linejoin="round" stroke-miterlimit="50" stroke-width="6" d="M266.47 2266.48a33.12 33.12 0 1 1 0 66.25 33.12 33.12 0 0 1 0-66.25z" clip-path="url(&quot;#a&quot;)" transform="translate(-230 -2263)"/><path d="M23.91 20.18h26.91a4.04 4.04 0 0 1 4.04 4.04v17.49c0 .6-.13 1.16-.36 1.67a1.5 1.5 0 0 1-1 2.62h-1a1.5 1.5 0 0 1-.93-.32c-.24.05-.5.07-.75.07h-.22c.26-.53.4-1.12.4-1.75V28a4 4 0 0 0-4-4H28a4 4 0 0 0-4 4v16c0 .63.14 1.22.4 1.75h-.49c-.18 0-.36-.01-.53-.04a1.5 1.5 0 0 1-.88.29h-1a1.5 1.5 0 0 1-1.17-2.44 4.02 4.02 0 0 1-.45-1.85V24.22c0-2.23 1.8-4.04 4.03-4.04zm-4.03 28.26h34.98c1.48 0 2.69 1.2 2.69 2.69 0 1.48-2.55 2.69-4.04 2.69H21.22c-1.48 0-4.03-1.21-4.03-2.69 0-1.49 1.2-2.69 2.69-2.69zm12.1 3.36c0 .37.6.67 1.35.67h8.07c.75 0 1.35-.3 1.35-.67 0-.37-.6-.67-1.35-.67h-8.07c-.74 0-1.34.3-1.34.67zm-3.65-15.83l1.9-1.91a1.34 1.34 0 0 1 1.9 0l2.47 2.5 8-8.04a1.33 1.33 0 0 1 1.9 0l1.9 1.9c.52.53.52 1.38 0 1.91L35.98 42.79c-.45.45-1.14.52-1.65.2-.44.1-.92-.02-1.26-.36l-4.74-4.76a1.35 1.35 0 0 1 0-1.9z"/></svg>