<svg xmlns="http://www.w3.org/2000/svg" width="91" height="91" viewBox="0 0 91 91"><defs><clipPath id="a"><path fill="#fff" d="M986 2965v-91h91v91zm3.07-45.43a42.23 42.23 0 1 0 84.46 0 42.23 42.23 0 0 0-84.46 0z"/></clipPath></defs><path fill="#f9f9f9" d="M45.3 3.34a42.23 42.23 0 1 1 0 84.47 42.23 42.23 0 0 1 0-84.47z"/><path fill="none" stroke="#777" stroke-linecap="round" stroke-linejoin="round" stroke-miterlimit="50" stroke-width="6" d="M1031.3 2877.34a42.23 42.23 0 1 1 0 84.47 42.23 42.23 0 0 1 0-84.47z" clip-path="url(&quot;#a&quot;)" transform="translate(-986 -2874)"/><path fill="#777" d="M60.25 69.08c-.41 0-.82-.11-1.18-.35L46.4 60.5l-12.68 8.23a2.17 2.17 0 0 1-3.27-2.41l3.97-14.1-11.85-10.04a2.18 2.18 0 0 1-.66-2.33 2.19 2.19 0 0 1 1.91-1.49l14.21-1.02 6.39-14.02a2.2 2.2 0 0 1 1.98-1.27c.84 0 1.61.5 1.97 1.27l6.39 14.02 14.21 1.02c.88.07 1.64.66 1.91 1.49.27.84.01 1.76-.66 2.33L58.37 52.22l3.97 14.1a2.18 2.18 0 0 1-2.09 2.76zM46.4 55.75c.41 0 .82.11 1.17.35l9.04 5.86-2.79-9.91c-.23-.81.04-1.69.68-2.24l8.86-7.5-10.19-.74a2.16 2.16 0 0 1-1.82-1.26L46.4 29.44l-4.96 10.87a2.16 2.16 0 0 1-1.82 1.26l-10.19.74 8.86 7.5c.64.55.91 1.43.68 2.24l-2.79 9.91 9.04-5.86c.35-.24.76-.35 1.18-.35z"/></svg>