<svg xmlns="http://www.w3.org/2000/svg" width="389" height="416" viewBox="0 0 389 416"><path fill="#fff" d="M362.3 249.51H331a157.07 157.07 0 0 1-12.46 32.43l21.95 23.51c10.14 10.86 10.14 28.46 0 39.31l-18.35 19.66c-10.14 10.86-26.58 10.86-36.71 0l-21.96-23.51a135.81 135.81 0 0 1-30.28 13.34v33.53c0 15.27-11.56 27.65-25.82 27.65h-25.82c-14.27 0-25.83-12.38-25.83-27.65v-33.53a135.95 135.95 0 0 1-31.28-13.99l-22.57 24.16c-10.13 10.86-26.57 10.86-36.7 0L46.8 344.76c-10.14-10.85-10.14-28.45 0-39.31l22.96-24.58a157.47 157.47 0 0 1-11.85-31.36h-31.3c-14.27 0-25.83-12.38-25.83-27.65v-27.65c0-15.28 11.56-27.66 25.82-27.66h31.31a157.52 157.52 0 0 1 12.46-32.43L46.8 108.88c-10.14-10.85-10.14-28.45 0-39.31l18.35-19.66a24.77 24.77 0 0 1 36.71 0l23.57 25.24a136.27 136.27 0 0 1 30.28-13.34V28.29c0-15.28 11.56-27.66 25.83-27.66h25.82c14.26 0 25.82 12.38 25.82 27.66v33.52a136.4 136.4 0 0 1 29.28 12.69l22.96-24.59a24.77 24.77 0 0 1 36.7 0l18.36 19.66c10.14 10.86 10.14 28.46 0 39.31l-22.56 24.17a156.99 156.99 0 0 1 13.07 33.5h31.3c14.27 0 25.83 12.38 25.83 27.66v27.65c0 15.27-11.56 27.65-25.83 27.65zM117 208.03c0 45.82 34.68 82.96 77.47 82.96 42.78 0 77.47-37.14 77.47-82.96 0-45.81-34.69-82.96-77.47-82.96-42.79 0-77.47 37.15-77.47 82.96zm77.47-41.48c21.4 0 38.73 18.57 38.73 41.48 0 22.91-17.34 41.48-38.73 41.48-21.4 0-38.74-18.57-38.74-41.48 0-22.91 17.35-41.48 38.74-41.48z"/></svg>