<svg xmlns="http://www.w3.org/2000/svg" width="91" height="91" viewBox="0 0 91 91"><defs><clipPath id="a"><path fill="#fff" d="M654 2965v-91h91v91zm3.46-45.44a42.23 42.23 0 1 0 84.45 0 42.23 42.23 0 0 0-84.45 0z"/></clipPath></defs><path fill="#f9f9f9" d="M45.7 3.33a42.23 42.23 0 1 1-.01 84.47 42.23 42.23 0 0 1 0-84.47z"/><path fill="none" stroke="#777" stroke-linecap="round" stroke-linejoin="round" stroke-miterlimit="50" stroke-width="6" d="M699.7 2877.33a42.23 42.23 0 1 1-.01 84.47 42.23 42.23 0 0 1 0-84.47z" clip-path="url(&quot;#a&quot;)" transform="translate(-654 -2874)"/><path fill="#777" d="M59.13 19.24c-1.99 0-3.6 1.6-3.6 3.58v38.73a3.6 3.6 0 0 0 7.2 0V22.82c0-1.98-1.62-3.58-3.6-3.58zM45.68 32.02c-1.99 0-3.6 1.6-3.6 3.58v25.95a3.6 3.6 0 0 0 7.2 0V35.6c0-1.98-1.62-3.58-3.6-3.58zM32.23 44.8c-1.99 0-3.6 1.6-3.6 3.58v13.17a3.6 3.6 0 0 0 7.19 0V48.38c0-1.98-1.61-3.58-3.6-3.58z"/></svg>