<svg xmlns="http://www.w3.org/2000/svg" width="73" height="73" viewBox="0 0 73 73"><defs><clipPath id="a"><path fill="#fff" d="M230 2424v-73h73v73zm3.35-36.56a33.12 33.12 0 1 0 66.25 0 33.12 33.12 0 0 0-66.25 0z"/></clipPath></defs><path fill="#fff" d="M36.47 3.32a33.12 33.12 0 1 1 0 66.25 33.12 33.12 0 0 1 0-66.25z"/><path fill="none" stroke="#000" stroke-linecap="round" stroke-linejoin="round" stroke-miterlimit="50" stroke-width="6" d="M266.47 2354.32a33.12 33.12 0 1 1 0 66.25 33.12 33.12 0 0 1 0-66.25z" clip-path="url(&quot;#a&quot;)" transform="translate(-230 -2351)"/><path d="M37.97 17.77c5.15 0 9.33 3.66 9.33 8.17v9.33h1.17a3.5 3.5 0 0 1 3.5 3.5V51.6a3.5 3.5 0 0 1-3.5 3.5h-21a3.5 3.5 0 0 1-3.5-3.5V38.77a3.5 3.5 0 0 1 3.5-3.5h1.16v-9.33c0-4.51 4.18-8.17 9.34-8.17zm-4.67 8.17v8.17c0 .4.1.8.26 1.16h8.81c.17-.36.26-.75.26-1.16v-8.17c0-1.93-2.08-3.5-4.66-3.5s-4.67 1.57-4.67 3.5zm2.33 23.33a2.33 2.33 0 1 0 4.67 0v-1.8a4.65 4.65 0 0 0-2.33-8.7 4.67 4.67 0 0 0-2.33 8.7z"/></svg>