<svg xmlns="http://www.w3.org/2000/svg" width="73" height="74" viewBox="0 0 73 74"><defs><clipPath id="a"><path fill="#fff" d="M230 2249v-74h73v74zm3.33-37.01a33.12 33.12 0 1 0 66.25.01 33.12 33.12 0 0 0-66.25-.01z"/></clipPath></defs><path fill="#fff" d="M36.45 3.87a33.12 33.12 0 1 1 0 66.25 33.12 33.12 0 0 1 0-66.25z"/><path fill="none" stroke="#000" stroke-linecap="round" stroke-linejoin="round" stroke-miterlimit="50" stroke-width="6" d="M266.45 2178.87a33.12 33.12 0 1 1 0 66.25 33.12 33.12 0 0 1 0-66.25z" clip-path="url(&quot;#a&quot;)" transform="translate(-230 -2175)"/><path d="M17.17 30.57c0-1.9 1.55-3.44 3.45-3.44h3.88c.06-.22.15-.43.27-.64l4.13-7.16a2.76 2.76 0 0 1 4.77 2.76l-2.91 5.04h11.38l-2.91-5.04c-.77-1.32-.31-3 1-3.77 1.32-.76 3-.3 3.76 1.01l4.13 7.16c.12.2.21.42.27.64h3.89a3.44 3.44 0 0 1 .26 6.87H20.35a3.44 3.44 0 0 1-3.18-3.43zM51.7 56.04H21.2L19.99 35H52.9zM35.07 42.27v8.26a1.38 1.38 0 1 0 2.75 0v-8.26a1.37 1.37 0 1 0-2.75 0zm8.26 0v8.26a1.38 1.38 0 1 0 2.75 0v-8.26a1.37 1.37 0 1 0-2.75 0zm-16.52 0v8.26a1.38 1.38 0 1 0 2.75 0v-8.26a1.37 1.37 0 1 0-2.75 0z"/></svg>