<svg xmlns="http://www.w3.org/2000/svg" width="91" height="91" viewBox="0 0 91 91"><defs><clipPath id="a"><path fill="#fff" d="M325 2965v-91h91v91zm3.34-45.44a42.23 42.23 0 1 0 84.46 0 42.23 42.23 0 0 0-84.46 0z"/></clipPath></defs><path fill="#f9f9f9" d="M45.57 3.33a42.23 42.23 0 1 1 0 84.46 42.23 42.23 0 0 1 0-84.46z"/><path fill="none" stroke="#777" stroke-linecap="round" stroke-linejoin="round" stroke-miterlimit="50" stroke-width="6" d="M370.57 2877.33a42.23 42.23 0 1 1 0 84.46 42.23 42.23 0 0 1 0-84.46z" clip-path="url(&quot;#a&quot;)" transform="translate(-325 -2874)"/><path fill="#777" d="M64.63 24.34c0-.62-.27-1.22-.75-1.61a2.06 2.06 0 0 0-1.73-.41L35.2 28.08a2.05 2.05 0 0 0-1.62 1.99l-.18 24.15a10.58 10.58 0 0 0-5.29-1.44h-.08c-5.14 0-9.34 3.57-9.37 7.95-.04 4.42 4.15 8.06 9.33 8.1h.09c5.13 0 9.33-3.57 9.37-7.95l.16-21.06 22.85-4.89-.1 13.53a10.49 10.49 0 0 0-5.29-1.44h-.08c-5.14 0-9.34 3.56-9.37 7.95-.04 4.42 4.15 8.05 9.33 8.09h.08c4.74 0 8.67-3.03 9.29-6.94.05-.18.08-.36.08-.55zM28.07 64.72H28c-2.87-.02-5.28-1.83-5.26-3.96.01-2.14 2.38-3.88 5.27-3.88h.05c2.87.03 5.28 1.84 5.27 3.97-.02 2.13-2.38 3.87-5.27 3.87zm9.55-28.05l.04-4.92 22.85-4.89-.03 4.92zm17.4 22.29h-.05c-2.87-.02-5.28-1.84-5.26-3.96.01-2.14 2.38-3.88 5.27-3.88h.05c2.87.02 5.28 1.84 5.27 3.96-.02 2.14-2.38 3.88-5.28 3.88z"/></svg>