<svg xmlns="http://www.w3.org/2000/svg" width="26" height="21" viewBox="0 0 26 21"><path fill="#ececec" d="M2.74.23h19.97a2.5 2.5 0 0 1 2.5 2.5v14.98a2.5 2.5 0 0 1-2.5 2.5H2.74a2.5 2.5 0 0 1-2.5-2.5V2.73a2.5 2.5 0 0 1 2.5-2.5zm11.65 9.99c0 .46.37.83.83.83h7.5a.83.83 0 1 0 0-1.66h-7.5a.83.83 0 0 0-.83.83zm0-3.33c0 .46.37.83.83.83h7.5a.83.83 0 1 0 0-1.66h-7.5a.83.83 0 0 0-.83.83zm0 6.66c0 .46.37.83.83.83h7.5a.83.83 0 1 0 0-1.66h-7.5a.83.83 0 0 0-.83.83zM1.91 6.06v8.32c0 .46.37.83.83.83h8.32c.46 0 .83-.37.83-.83V6.06a.84.84 0 0 0-.83-.84H2.74a.84.84 0 0 0-.83.84z"/></svg>83 0 0 0-.83-.83H2.74a.83.83 0 0 0-.83.83z"/></svg>