<svg xmlns="http://www.w3.org/2000/svg" width="26" height="23" viewBox="0 0 26 23"><path fill="#ececec" d="M1.58.27h22.05c.87 0 1.58.7 1.58 1.57v18.9c0 .87-.7 1.58-1.58 1.58H1.58C.7 22.32 0 21.61 0 20.74V1.84C0 .97.7.27 1.58.27zm.79 3.93v14.18c0 .87.7 1.58 1.57 1.58h17.33c.87 0 1.58-.71 1.58-1.58V4.2c0-.87-.71-1.57-1.58-1.57H3.94c-.87 0-1.57.7-1.57 1.57zm3.32.96a1 1 0 0 1 1.23-.68l2.36.68a1 1 0 0 1 .69 1.24l-.68 2.36a1 1 0 0 1-1.24.68l-2.36-.68a1 1 0 0 1-.68-1.24zM3.15 18.38l4.73-6.3 3.15 3.94h.79l5.51-11.03 4.73 13.39z"/></svg>