<svg xmlns="http://www.w3.org/2000/svg" width="33" height="32" viewBox="0 0 33 32"><path fill="#ccc" d="M.97 15.7c0 8.66 7.04 15.7 15.7 15.7 8.65 0 15.7-7.04 15.7-15.7 0-8.65-7.05-15.7-15.7-15.7C8 0 .97 7.05.97 15.7zm1.25 0c0-7.96 6.48-14.44 14.45-14.44 7.96 0 14.44 6.48 14.44 14.44 0 7.97-6.48 14.45-14.44 14.45A14.46 14.46 0 0 1 2.22 15.7z"/><path fill="#ccc" d="M14.34 21.68c-.26 0-.53-.1-.73-.3l-4.32-4.31a1.03 1.03 0 1 1 1.46-1.46l3.59 3.58 8.59-8.58c.4-.41 1.06-.41 1.46 0 .4.4.4 1.05 0 1.46l-9.32 9.31c-.2.2-.47.3-.73.3z"/></svg>